<?xml version="1.0" encoding="utf-8"?>
<svg viewBox="0 0 41 41" fill="none" xmlns="http://www.w3.org/2000/svg">
  <path d="M 14.648 2.903 L 7.547 10.004 L 10.132 12.629 L 17.234 5.527 C 18.971 3.791 21.75 3.752 23.564 5.412 L 25.725 7.534 L 28.311 4.948 L 26.149 2.787 C 22.946 -0.3 17.813 -0.262 14.648 2.903 Z" fill="#FC1264"/>
  <path d="M 23.101 30.846 L 30.858 23.088 L 31.553 22.394 C 32.595 21.351 32.595 19.615 31.553 18.573 L 30.858 17.878 L 23.178 10.197 L 22.483 9.503 C 21.441 8.461 19.704 8.461 18.662 9.503 L 17.968 10.197 L 10.171 17.878 L 9.477 18.573 C 8.434 19.615 8.434 21.351 9.477 22.394 L 10.171 23.088 L 17.852 30.769 L 18.546 31.463 C 19.589 32.505 21.325 32.505 22.367 31.463 L 23.101 30.846 Z M 12.796 20.502 L 20.553 12.783 L 28.234 20.464 L 20.476 28.221 L 12.796 20.502 Z" fill="#17124B"/>
  <path d="M 23.718 35.477 C 21.981 37.214 19.203 37.253 17.389 35.593 L 15.227 33.432 L 12.603 36.056 L 14.764 38.218 C 18.006 41.305 23.139 41.267 26.304 38.063 L 33.444 30.923 L 30.858 28.337 L 23.718 35.477 Z" fill="#25CDE3"/>
  <path d="M33.314 25.3784L34.2017 26.2661L33.314 25.3784Z" fill="#25CDE3"/>
  <path d="M4.75342 12.2947L6.02706 13.6069L4.75342 12.2947Z" fill="#FC1264"/>
  <path d="M 5.501 23.744 C 3.764 22.008 3.726 19.229 5.385 17.415 L 7.547 15.253 L 4.922 12.629 L 2.761 14.79 C -0.327 18.032 -0.288 23.165 2.915 26.33 L 10.017 33.432 L 12.602 30.846 L 5.501 23.744 Z" fill="#FDB42B"/>
  <path d="M 38.114 14.636 L 31.012 7.534 L 28.426 10.12 L 35.528 17.222 C 37.265 18.959 37.303 21.737 35.644 23.551 L 33.521 25.713 L 36.107 28.299 L 38.268 26.137 C 41.317 22.934 41.279 17.839 38.114 14.636 Z" fill="#22D685"/>
</svg>